<?xml version="1.0" encoding="utf-8"?>
<!-- Generator: Adobe Illustrator 23.0.3, SVG Export Plug-In . SVG Version: 6.00 Build 0)  -->
<svg version="1.1" id="レイヤー_1" xmlns="http://www.w3.org/2000/svg" xmlns:xlink="http://www.w3.org/1999/xlink" x="0px"
	 y="0px" viewBox="0 0 239.7 143.9" style="enable-background:new 0 0 239.7 143.9;" xml:space="preserve">
<style type="text/css">
	.st0{fill:#234FA1;}
	.st1{fill:#231815;}
</style>
<path class="st0" d="M185.9,15.3c-7.9,0-15,3.9-19.3,10.2c-2.4,3.5-4.3,7.5-5.9,11.4c-1.2,2.4-2.4,4.7-3.5,7.1
	c0,0.4-13.4,22.4-41.7,22.4c-3.1,0-10.6-2.4-14.6-3.5c-0.8-0.4-1.6-0.4-2.4,0c-4.7,1.2-16.5,4.3-22.4,7.9c1.6-2.4,7.9-7.1,10.2-8.7
	c1.6-1.2,2-3.1,1.2-4.7s-2.8-2.8-4.7-2L82,55.8c-5.9,1.6-20.1,5.1-30.3,16.1c15,11.8,32.7,22.8,55.9,22.8
	c38.6,0,60.2-12.6,71.2-40.9c0.8-2,3.1-3.1,5.1-2.4s3.1,3.1,2.4,5.1c-12.6,30.7-37.4,45.2-79.1,45.2c-23.2,0-41.7-10.6-56.7-21.6
	c-0.4-0.4-0.4-0.4-0.8-0.8C30.1,65.2,20.2,48.7,20.2,48.7c-0.8-1.6-2.4-2.4-3.9-2c-2.4,0-3.9,2-3.9,3.9c0,0.8,0.4,1.2,0.4,2
	c0,0,7.5,12.6,22.4,25.6c-2.4,5.1-6.7,17.7,1.2,33c0.8,2,3.1,2.8,5.1,2s2.8-3.1,2-5.1c0,0,0,0,0-0.4c-5.9-11.4-3.5-20.1-2-24.4
	c0.8,0.8,1.6,1.2,2.4,2c1.6,33,31.1,53.5,58.6,55.9h0.4c1.6,0,2.8-0.8,3.5-2.4c0.8-1.2,0.4-2.8-0.4-3.9c-0.4-0.8-5.9-10.6-7.1-13.4
	c5.5,7.1,20.9,18.9,21.6,19.3c0.8,0.4,1.6,0.8,2.4,0.4c40.1-4.7,86.6-33.8,86.6-102.3C209.5,25.9,198.9,15.3,185.9,15.3z"/>
<g>
	<g>
		<path class="st0" d="M33.6,29c3.4,0,5.2-1.2,5.2-3.5c0-0.7-0.2-1.3-0.5-1.8c-0.3-0.5-0.7-1-1.2-1.3c-0.5-0.4-1.1-0.7-1.8-1
			s-1.4-0.5-2.1-0.8c-0.9-0.3-1.7-0.6-2.4-1c-0.8-0.4-1.4-0.8-2-1.3c-0.6-0.5-1-1.1-1.3-1.8c-0.3-0.7-0.5-1.5-0.5-2.5
			c0-2.1,0.7-3.7,2.1-4.8c1.4-1.2,3.3-1.7,5.8-1.7c1.4,0,2.7,0.2,3.9,0.5c1.2,0.3,2,0.6,2.6,1l-1.1,2.7c-0.5-0.3-1.2-0.6-2.1-0.9
			c-0.9-0.3-2-0.4-3.3-0.4c-0.6,0-1.2,0.1-1.8,0.2s-1,0.3-1.4,0.6c-0.4,0.3-0.7,0.6-1,1c-0.2,0.4-0.4,0.9-0.4,1.5
			c0,0.6,0.1,1.2,0.4,1.6c0.2,0.4,0.6,0.8,1.1,1.1c0.5,0.3,1,0.6,1.6,0.9c0.6,0.3,1.3,0.5,2,0.8c1,0.4,2,0.8,2.8,1.2
			s1.6,0.9,2.2,1.5c0.6,0.6,1.1,1.2,1.4,2c0.3,0.8,0.5,1.7,0.5,2.8c0,2.1-0.8,3.6-2.3,4.8c-1.5,1.1-3.6,1.7-6.4,1.7
			c-0.9,0-1.8-0.1-2.6-0.2c-0.8-0.1-1.5-0.3-2.1-0.4c-0.6-0.2-1.1-0.4-1.6-0.5c-0.4-0.2-0.8-0.4-1-0.5l1-2.7c0.5,0.3,1.3,0.6,2.4,1
			C30.7,28.8,32,29,33.6,29z"/>
		<path class="st0" d="M47.5,10.5c-0.6,0-1-0.2-1.4-0.6c-0.4-0.4-0.6-0.9-0.6-1.5s0.2-1.1,0.6-1.5c0.4-0.4,0.9-0.6,1.4-0.6
			c0.6,0,1,0.2,1.4,0.6c0.4,0.4,0.6,0.9,0.6,1.5S49.4,9.6,49,10C48.6,10.3,48.1,10.5,47.5,10.5z M49.1,31.4H46V13.7h3.2V31.4z"/>
		<path class="st0" d="M54.6,14.2c0.7-0.2,1.7-0.4,2.9-0.6s2.6-0.3,4.1-0.3c1.1,0,2.1,0.2,2.9,0.5c0.8,0.3,1.4,0.8,1.9,1.3
			c0.2-0.1,0.4-0.3,0.7-0.5c0.3-0.2,0.8-0.4,1.3-0.6c0.5-0.2,1.1-0.4,1.7-0.5c0.6-0.1,1.3-0.2,2-0.2c1.4,0,2.5,0.2,3.3,0.6
			c0.9,0.4,1.5,1,2,1.7c0.5,0.7,0.8,1.6,1,2.6c0.2,1,0.3,2.1,0.3,3.3v9.9h-3.2v-9.2c0-1-0.1-1.9-0.2-2.7c-0.1-0.7-0.3-1.4-0.6-1.9
			c-0.3-0.5-0.7-0.9-1.2-1.1c-0.5-0.2-1.1-0.4-1.9-0.4c-1.1,0-1.9,0.1-2.6,0.4c-0.7,0.3-1.2,0.5-1.4,0.8c0.2,0.6,0.3,1.2,0.4,1.9
			c0.1,0.7,0.1,1.4,0.1,2.2v9.9H65v-9.2c0-1-0.1-1.9-0.2-2.7s-0.3-1.4-0.6-1.9c-0.3-0.5-0.7-0.9-1.2-1.1c-0.5-0.2-1.1-0.4-1.8-0.4
			c-0.3,0-0.7,0-1,0c-0.4,0-0.7,0.1-1,0.1c-0.3,0-0.6,0.1-0.9,0.1s-0.5,0.1-0.5,0.1v14.9h-3.2V14.2z"/>
		<path class="st0" d="M99.3,22.6c0,1.3-0.2,2.6-0.5,3.7c-0.4,1.1-0.9,2.1-1.5,2.9c-0.7,0.8-1.5,1.4-2.5,1.9s-2.1,0.7-3.4,0.7
			c-1,0-1.9-0.1-2.7-0.4c-0.8-0.3-1.4-0.5-1.7-0.8v7.1h-3.2V14.3c0.7-0.2,1.7-0.4,2.8-0.6c1.1-0.2,2.4-0.3,3.9-0.3
			c1.4,0,2.6,0.2,3.7,0.6c1.1,0.4,2,1,2.8,1.8c0.8,0.8,1.4,1.8,1.8,2.9C99.1,19.9,99.3,21.1,99.3,22.6z M96,22.6
			c0-2.1-0.5-3.6-1.5-4.8c-1-1.1-2.4-1.7-4.1-1.7c-1,0-1.7,0-2.2,0.1c-0.5,0.1-1,0.1-1.3,0.2v11.1c0.4,0.3,0.9,0.6,1.7,0.9
			c0.7,0.3,1.5,0.4,2.4,0.4c0.9,0,1.7-0.2,2.3-0.5c0.6-0.3,1.2-0.8,1.6-1.4s0.7-1.3,0.9-2C95.9,24.3,96,23.5,96,22.6z"/>
		<path class="st0" d="M109.1,31.7c-1.9,0-3.3-0.5-4.1-1.3c-0.8-0.8-1.2-2-1.2-3.7V5.6l3.2-0.5v21.2c0,0.5,0,1,0.1,1.3
			c0.1,0.3,0.2,0.6,0.4,0.8c0.2,0.2,0.5,0.4,0.8,0.5s0.8,0.2,1.3,0.3L109.1,31.7z"/>
		<path class="st0" d="M112.1,22.6c0-1.6,0.2-2.9,0.7-4.1c0.5-1.2,1.1-2.1,1.8-2.9c0.7-0.8,1.6-1.3,2.6-1.7c1-0.4,2-0.6,3-0.6
			c2.4,0,4.2,0.7,5.5,2.2c1.3,1.5,1.9,3.7,1.9,6.8c0,0.1,0,0.3,0,0.5s0,0.4,0,0.6h-12.1c0.1,1.8,0.7,3.2,1.6,4.2s2.4,1.4,4.3,1.4
			c1.1,0,2-0.1,2.8-0.3c0.8-0.2,1.3-0.4,1.7-0.6l0.4,2.6c-0.4,0.2-1.1,0.4-2,0.6c-1,0.2-2.1,0.3-3.3,0.3c-1.5,0-2.9-0.2-4-0.7
			c-1.1-0.5-2-1.1-2.8-1.9c-0.7-0.8-1.3-1.8-1.6-2.9S112.1,23.9,112.1,22.6z M124.2,20.8c0-1.4-0.3-2.6-1.1-3.5
			c-0.7-0.9-1.7-1.4-3-1.4c-0.7,0-1.4,0.1-1.9,0.4c-0.6,0.3-1,0.7-1.4,1.1c-0.4,0.5-0.7,1-0.9,1.6s-0.4,1.2-0.4,1.8H124.2z"/>
	</g>
</g>
<g>
	<g>
		<path class="st1" d="M32.8,41.6c0.1,1.1,0.2,2.1,0.3,3.1c0.1,1,0.2,1.9,0.3,2.7c0.2-0.4,0.5-0.9,0.8-1.5c0.3-0.5,0.5-1.1,0.8-1.7
			c0.3-0.6,0.5-1.2,0.8-1.8s0.5-1.2,0.8-1.9h1.2c-0.6,1.6-1.3,3.1-1.9,4.4c-0.6,1.4-1.3,2.7-2,3.9h-1.2c-0.1-0.8-0.3-1.7-0.4-2.6
			c-0.1-0.9-0.2-1.9-0.3-2.9c-0.5,1-1.1,1.9-1.6,2.8s-1.1,1.8-1.7,2.7h-1.2c-0.1-0.6-0.1-1.3-0.1-1.9s0-1.3,0-2s0-1.4,0-2.1
			s0.1-1.5,0.1-2.3h1.2c-0.1,0.8-0.1,1.7-0.1,2.5c0,0.8,0,1.7,0,2.5c0,0.6,0,1.2,0,1.8c0.6-0.8,1.1-1.8,1.6-2.7c0.5-1,1.1-2,1.7-3.1
			H32.8z"/>
		<path class="st1" d="M39.8,49c-0.4,0-0.8-0.1-1.1-0.2c-0.3-0.1-0.5-0.3-0.7-0.5c-0.2-0.2-0.3-0.4-0.4-0.7
			c-0.1-0.3-0.1-0.6-0.1-0.9c0-0.6,0.1-1.1,0.3-1.6s0.4-1,0.7-1.4c0.3-0.4,0.7-0.7,1.1-1c0.4-0.2,1-0.4,1.5-0.4c0.3,0,0.6,0,0.8,0.1
			c0.2,0.1,0.4,0.2,0.6,0.3s0.3,0.3,0.3,0.5c0.1,0.2,0.1,0.4,0.1,0.6c0,0.4-0.1,0.7-0.2,1c-0.1,0.3-0.3,0.5-0.5,0.7
			c-0.2,0.2-0.5,0.3-0.8,0.4c-0.3,0.1-0.6,0.2-0.9,0.2c-0.3,0.1-0.7,0.1-1,0.1c-0.3,0-0.6,0-0.9,0.1c0,0.1,0,0.1,0,0.2s0,0.1,0,0.1
			c0,0.2,0,0.4,0.1,0.5s0.1,0.3,0.2,0.4s0.3,0.2,0.5,0.3c0.2,0.1,0.5,0.1,0.8,0.1c0.2,0,0.3,0,0.5,0c0.2,0,0.3-0.1,0.5-0.1
			s0.3-0.1,0.4-0.1c0.1,0,0.2-0.1,0.2-0.1l0.1,0.9c-0.2,0.1-0.4,0.2-0.8,0.3C40.7,49,40.3,49,39.8,49z M38.6,45.6
			c0.5,0,0.9,0,1.3-0.1c0.4,0,0.7-0.1,1-0.2c0.3-0.1,0.5-0.3,0.7-0.4c0.2-0.2,0.2-0.4,0.2-0.7c0-0.1,0-0.1,0-0.2
			c0-0.1-0.1-0.2-0.1-0.2c-0.1-0.1-0.2-0.1-0.3-0.2c-0.1,0-0.3-0.1-0.4-0.1c-0.3,0-0.5,0.1-0.8,0.2c-0.2,0.1-0.5,0.3-0.7,0.5
			c-0.2,0.2-0.4,0.4-0.5,0.7C38.8,45,38.7,45.3,38.6,45.6z"/>
		<path class="st1" d="M45.9,42.9c0.2-0.1,0.4-0.2,0.6-0.3s0.5-0.1,0.8-0.1c0.3,0,0.6,0.1,0.9,0.2c0.3,0.1,0.5,0.3,0.6,0.5
			c0.2,0.2,0.3,0.4,0.4,0.7s0.1,0.6,0.1,0.9c0,0.6-0.1,1.1-0.3,1.6c-0.2,0.5-0.4,1-0.8,1.4c-0.4,0.4-0.8,0.7-1.4,1
			C46.4,48.9,45.7,49,45,49c-0.1,0-0.3,0-0.4,0c-0.1,0-0.3,0-0.4-0.1c-0.1,0-0.3-0.1-0.4-0.1c-0.1,0-0.3-0.1-0.4-0.2l2.1-8.9
			l1.2-0.2L45.9,42.9z M47,43.4c-0.2,0-0.5,0-0.7,0.1s-0.5,0.2-0.7,0.4l-1,4.1c0.1,0,0.2,0,0.3,0s0.2,0,0.3,0c0.5,0,0.9-0.1,1.2-0.3
			c0.4-0.2,0.7-0.4,0.9-0.7c0.3-0.3,0.5-0.6,0.6-1c0.1-0.4,0.2-0.8,0.2-1.2c0-0.2,0-0.3-0.1-0.5S48.1,44,48,43.8
			c-0.1-0.1-0.2-0.2-0.4-0.3C47.4,43.5,47.2,43.4,47,43.4z"/>
		<path class="st1" d="M52.8,48.9l2-8.3h4.9l-0.2,1h-3.7l-0.6,2.5h3.3L58.2,45h-3.3L54,48.9H52.8z"/>
		<path class="st1" d="M60.1,48.9H59l1.5-6.2h1.1L60.1,48.9z M61.4,41.5c-0.2,0-0.3-0.1-0.5-0.2c-0.1-0.1-0.2-0.3-0.2-0.5
			c0-0.3,0.1-0.5,0.2-0.6s0.3-0.2,0.5-0.2c0.2,0,0.3,0.1,0.5,0.2c0.1,0.1,0.2,0.3,0.2,0.5c0,0.2-0.1,0.4-0.3,0.6
			C61.8,41.4,61.6,41.5,61.4,41.5z"/>
		<path class="st1" d="M63.7,46.1c0,0.2-0.1,0.3-0.1,0.5s-0.1,0.3-0.1,0.5c0,0.3,0.1,0.5,0.2,0.6c0.1,0.2,0.4,0.3,0.7,0.3L64.2,49
			c-0.3,0-0.6-0.1-0.8-0.1s-0.4-0.2-0.6-0.4c-0.1-0.2-0.2-0.3-0.3-0.5c-0.1-0.2-0.1-0.4-0.1-0.7c0-0.2,0-0.4,0-0.6
			c0-0.2,0.1-0.4,0.1-0.6l1.5-6.3l1.2-0.2L63.7,46.1z"/>
		<path class="st1" d="M68,49c-0.4,0-0.8-0.1-1.1-0.2c-0.3-0.1-0.5-0.3-0.7-0.5c-0.2-0.2-0.3-0.4-0.4-0.7c-0.1-0.3-0.1-0.6-0.1-0.9
			c0-0.6,0.1-1.1,0.3-1.6s0.4-1,0.7-1.4c0.3-0.4,0.7-0.7,1.1-1c0.4-0.2,1-0.4,1.5-0.4c0.3,0,0.6,0,0.8,0.1c0.2,0.1,0.4,0.2,0.6,0.3
			s0.3,0.3,0.3,0.5c0.1,0.2,0.1,0.4,0.1,0.6c0,0.4-0.1,0.7-0.2,1c-0.1,0.3-0.3,0.5-0.5,0.7c-0.2,0.2-0.5,0.3-0.8,0.4
			c-0.3,0.1-0.6,0.2-0.9,0.2c-0.3,0.1-0.7,0.1-1,0.1c-0.3,0-0.6,0-0.9,0.1c0,0.1,0,0.1,0,0.2s0,0.1,0,0.1c0,0.2,0,0.4,0.1,0.5
			s0.1,0.3,0.2,0.4s0.3,0.2,0.5,0.3C67.7,48,68,48,68.4,48c0.2,0,0.3,0,0.5,0c0.2,0,0.3-0.1,0.5-0.1s0.3-0.1,0.4-0.1
			c0.1,0,0.2-0.1,0.2-0.1l0.1,0.9c-0.2,0.1-0.4,0.2-0.8,0.3C68.9,49,68.5,49,68,49z M66.9,45.6c0.5,0,0.9,0,1.3-0.1
			c0.4,0,0.7-0.1,1-0.2c0.3-0.1,0.5-0.3,0.7-0.4c0.2-0.2,0.2-0.4,0.2-0.7c0-0.1,0-0.1,0-0.2c0-0.1-0.1-0.2-0.1-0.2
			c-0.1-0.1-0.2-0.1-0.3-0.2c-0.1,0-0.3-0.1-0.4-0.1c-0.3,0-0.5,0.1-0.8,0.2c-0.2,0.1-0.5,0.3-0.7,0.5c-0.2,0.2-0.4,0.4-0.5,0.7
			C67,45,66.9,45.3,66.9,45.6z"/>
		<path class="st1" d="M76.6,48.9c-0.2,0-0.3,0-0.5,0c-0.2,0-0.4,0-0.6,0c-0.2,0-0.4,0-0.6-0.1c-0.2,0-0.3-0.1-0.5-0.1l1.9-8.1
			c0.3-0.1,0.7-0.1,1.1-0.2s0.8,0,1.1,0c0.4,0,0.8,0,1.1,0.1s0.6,0.2,0.9,0.3c0.2,0.1,0.4,0.3,0.6,0.6c0.1,0.2,0.2,0.5,0.2,0.9
			c0,0.5-0.1,0.9-0.4,1.3c-0.3,0.4-0.7,0.6-1.2,0.8c0.3,0.1,0.6,0.3,0.8,0.6s0.3,0.6,0.3,1c0,0.6-0.1,1-0.3,1.4
			c-0.2,0.4-0.5,0.7-0.9,0.9s-0.8,0.4-1.4,0.5C77.7,48.9,77.2,48.9,76.6,48.9z M76.5,45l-0.7,3c0.1,0,0.2,0,0.4,0c0.2,0,0.4,0,0.7,0
			c0.3,0,0.6,0,0.9-0.1s0.6-0.1,0.9-0.3c0.3-0.1,0.5-0.3,0.7-0.6c0.2-0.2,0.3-0.6,0.3-1c0-0.4-0.1-0.7-0.4-0.9
			C79,45.1,78.5,45,77.9,45H76.5z M76.7,44.1h1.1c0.3,0,0.5,0,0.8-0.1c0.3,0,0.5-0.1,0.8-0.2c0.2-0.1,0.4-0.3,0.6-0.5
			c0.1-0.2,0.2-0.5,0.2-0.8c0-0.4-0.2-0.7-0.5-0.9c-0.3-0.2-0.8-0.2-1.4-0.2c-0.2,0-0.4,0-0.6,0c-0.2,0-0.3,0-0.4,0L76.7,44.1z"/>
		<path class="st1" d="M85.3,42.5c0.1,0,0.2,0,0.3,0s0.2,0,0.4,0c0.1,0,0.2,0,0.3,0.1c0.1,0,0.2,0,0.2,0.1l-0.3,1
			c-0.2-0.1-0.3-0.1-0.6-0.1c-0.2,0-0.4,0-0.6,0c-0.2,0-0.3,0-0.5,0c-0.2,0-0.3,0.1-0.4,0.1l-1.3,5.3h-1.1l1.4-6
			c0.3-0.1,0.7-0.2,1-0.3C84.6,42.5,84.9,42.5,85.3,42.5z"/>
		<path class="st1" d="M88.6,49c-0.7,0-1.2-0.2-1.5-0.6c-0.4-0.4-0.6-0.9-0.6-1.6c0-0.5,0.1-1,0.2-1.5c0.1-0.5,0.3-1,0.6-1.4
			c0.3-0.4,0.7-0.8,1.1-1.1c0.5-0.3,1-0.4,1.7-0.4c0.7,0,1.2,0.2,1.5,0.6c0.4,0.4,0.6,0.9,0.6,1.6c0,0.5-0.1,1-0.2,1.5
			c-0.1,0.5-0.3,1-0.6,1.4c-0.3,0.4-0.7,0.8-1.1,1.1C89.8,48.9,89.2,49,88.6,49z M88.8,48.1c0.4,0,0.7-0.1,1-0.3
			c0.3-0.2,0.5-0.5,0.7-0.8c0.2-0.3,0.3-0.7,0.4-1.1c0.1-0.4,0.2-0.8,0.2-1.1c0-0.4-0.1-0.7-0.3-1c-0.2-0.2-0.5-0.4-0.9-0.4
			c-0.4,0-0.7,0.1-1,0.3c-0.3,0.2-0.5,0.5-0.7,0.8c-0.2,0.3-0.3,0.7-0.4,1.1c-0.1,0.4-0.2,0.8-0.2,1.1c0,0.4,0.1,0.7,0.3,1
			C88,47.9,88.3,48.1,88.8,48.1z"/>
		<path class="st1" d="M98.8,47.6c0.2-0.2,0.4-0.6,0.7-1s0.5-0.8,0.7-1.3c0.2-0.5,0.5-0.9,0.7-1.4c0.2-0.5,0.4-0.9,0.5-1.3h1.1
			c-0.2,0.6-0.4,1.1-0.7,1.7s-0.6,1.2-0.9,1.7c-0.3,0.5-0.6,1.1-1,1.6c-0.3,0.5-0.7,0.9-1,1.3h-1c-0.1-0.7-0.2-1.4-0.2-2.1
			c-0.1-0.7-0.1-1.4-0.1-2.1c-0.2,0.4-0.3,0.7-0.5,1.1c-0.2,0.4-0.4,0.8-0.6,1.1s-0.4,0.7-0.7,1.1c-0.2,0.3-0.4,0.7-0.6,0.9h-1
			C94,48,93.9,47.1,93.7,46c-0.1-1.1-0.2-2.2-0.2-3.4h1.1c0,0.4,0,0.8,0,1.2s0,0.9,0.1,1.3s0.1,0.9,0.1,1.3c0,0.4,0.1,0.8,0.1,1.1
			c0.2-0.3,0.5-0.7,0.7-1.1s0.5-0.8,0.7-1.3c0.2-0.4,0.4-0.9,0.6-1.3s0.3-0.8,0.5-1.2h1c0,0.4,0,0.7,0,1.2c0,0.4,0,0.8,0.1,1.3
			c0,0.4,0.1,0.9,0.1,1.3C98.7,46.8,98.8,47.2,98.8,47.6z"/>
		<path class="st1" d="M103.9,48.1c0.2,0,0.3,0,0.5,0c0.2,0,0.3-0.1,0.5-0.2c0.1-0.1,0.2-0.2,0.3-0.3s0.1-0.3,0.1-0.5
			c0-0.1,0-0.2-0.1-0.3c0-0.1-0.1-0.2-0.2-0.3c-0.1-0.1-0.2-0.2-0.3-0.2c-0.1-0.1-0.3-0.2-0.5-0.3c-0.2-0.1-0.4-0.2-0.5-0.3
			c-0.2-0.1-0.3-0.2-0.4-0.3c-0.1-0.1-0.2-0.3-0.3-0.4c-0.1-0.2-0.1-0.4-0.1-0.6c0-0.6,0.2-1.1,0.6-1.4c0.4-0.4,1.1-0.5,1.9-0.5
			c0.4,0,0.7,0,1,0.1c0.3,0.1,0.5,0.1,0.6,0.2l-0.4,0.9c-0.1-0.1-0.3-0.1-0.5-0.2c-0.2-0.1-0.5-0.1-0.8-0.1c-0.2,0-0.3,0-0.5,0
			c-0.2,0-0.3,0.1-0.4,0.2c-0.1,0.1-0.2,0.2-0.3,0.3s-0.1,0.3-0.1,0.4c0,0.2,0.1,0.4,0.3,0.5c0.2,0.1,0.4,0.3,0.8,0.4
			c0.2,0.1,0.4,0.2,0.6,0.3c0.2,0.1,0.3,0.2,0.4,0.3c0.1,0.1,0.2,0.3,0.3,0.4s0.1,0.4,0.1,0.6c0,0.3-0.1,0.6-0.2,0.9
			s-0.3,0.5-0.5,0.6s-0.5,0.3-0.8,0.4s-0.7,0.1-1,0.1c-0.3,0-0.5,0-0.7-0.1c-0.2,0-0.4-0.1-0.6-0.1s-0.3-0.1-0.4-0.1
			c-0.1-0.1-0.2-0.1-0.2-0.1l0.4-0.9c0.1,0,0.1,0.1,0.2,0.1c0.1,0,0.2,0.1,0.4,0.1c0.1,0,0.3,0.1,0.5,0.1
			C103.5,48.1,103.7,48.1,103.9,48.1z"/>
		<path class="st1" d="M109.9,49c-0.4,0-0.8-0.1-1.1-0.2c-0.3-0.1-0.5-0.3-0.7-0.5c-0.2-0.2-0.3-0.4-0.4-0.7
			c-0.1-0.3-0.1-0.6-0.1-0.9c0-0.6,0.1-1.1,0.3-1.6s0.4-1,0.7-1.4c0.3-0.4,0.7-0.7,1.1-1c0.4-0.2,1-0.4,1.5-0.4c0.3,0,0.6,0,0.8,0.1
			c0.2,0.1,0.4,0.2,0.6,0.3s0.3,0.3,0.3,0.5c0.1,0.2,0.1,0.4,0.1,0.6c0,0.4-0.1,0.7-0.2,1c-0.1,0.3-0.3,0.5-0.5,0.7
			c-0.2,0.2-0.5,0.3-0.8,0.4c-0.3,0.1-0.6,0.2-0.9,0.2c-0.3,0.1-0.7,0.1-1,0.1c-0.3,0-0.6,0-0.9,0.1c0,0.1,0,0.1,0,0.2s0,0.1,0,0.1
			c0,0.2,0,0.4,0.1,0.5s0.1,0.3,0.2,0.4s0.3,0.2,0.5,0.3c0.2,0.1,0.5,0.1,0.8,0.1c0.2,0,0.3,0,0.5,0c0.2,0,0.3-0.1,0.5-0.1
			s0.3-0.1,0.4-0.1c0.1,0,0.2-0.1,0.2-0.1l0.1,0.9c-0.2,0.1-0.4,0.2-0.8,0.3C110.8,49,110.4,49,109.9,49z M108.8,45.6
			c0.5,0,0.9,0,1.3-0.1c0.4,0,0.7-0.1,1-0.2c0.3-0.1,0.5-0.3,0.7-0.4c0.2-0.2,0.2-0.4,0.2-0.7c0-0.1,0-0.1,0-0.2
			c0-0.1-0.1-0.2-0.1-0.2c-0.1-0.1-0.2-0.1-0.3-0.2c-0.1,0-0.3-0.1-0.4-0.1c-0.3,0-0.5,0.1-0.8,0.2c-0.2,0.1-0.5,0.3-0.7,0.5
			c-0.2,0.2-0.4,0.4-0.5,0.7C109,45,108.9,45.3,108.8,45.6z"/>
		<path class="st1" d="M117,42.5c0.1,0,0.2,0,0.3,0s0.2,0,0.4,0c0.1,0,0.2,0,0.3,0.1c0.1,0,0.2,0,0.2,0.1l-0.3,1
			c-0.2-0.1-0.3-0.1-0.6-0.1c-0.2,0-0.4,0-0.6,0c-0.2,0-0.3,0-0.5,0c-0.2,0-0.3,0.1-0.4,0.1l-1.3,5.3h-1.1l1.4-6
			c0.3-0.1,0.7-0.2,1-0.3C116.3,42.5,116.7,42.5,117,42.5z"/>
	</g>
</g>
</svg>
