<?xml version="1.0" encoding="utf-8"?>
<!-- Generator: Adobe Illustrator 23.0.3, SVG Export Plug-In . SVG Version: 6.00 Build 0)  -->
<svg version="1.1" id="レイヤー_1" xmlns="http://www.w3.org/2000/svg" xmlns:xlink="http://www.w3.org/1999/xlink" x="0px"
	 y="0px" viewBox="0 0 111.9 28" style="enable-background:new 0 0 111.9 28;" xml:space="preserve">
<style type="text/css">
	.st0{fill:#234FA1;}
	.st1{enable-background:new    ;}
</style>
<path class="st0" d="M36.2,1.3c-1.6,0-3,0.8-3.9,2.1c-0.5,0.7-0.9,1.5-1.2,2.3c-0.2,0.5-0.5,1-0.7,1.4c0,0.1-2.7,4.6-8.5,4.6
	c-0.6,0-2.2-0.5-3-0.7c-0.2-0.1-0.3-0.1-0.5,0c-1,0.2-3.4,0.9-4.6,1.6c0.3-0.5,1.6-1.4,2.1-1.8c0.3-0.2,0.4-0.6,0.2-1
	c-0.2-0.3-0.6-0.6-1-0.4l-0.2,0.1c-1.2,0.3-4.1,1-6.2,3.3c3,2.4,6.7,4.6,11.4,4.6c7.9,0,12.3-2.6,14.5-8.3c0.2-0.4,0.6-0.6,1-0.5
	c0.4,0.2,0.6,0.6,0.5,1C33.8,16,28.7,19,20.2,19c-4.7,0-8.5-2.2-11.5-4.4c-0.1-0.1-0.1-0.1-0.2-0.2c-4-2.9-6-6.3-6-6.3
	C2.3,7.8,2,7.7,1.7,7.7c-0.5,0-0.8,0.4-0.8,0.8C0.9,8.7,1,8.8,1,8.9c0,0,1.5,2.6,4.6,5.2c-0.5,1-1.4,3.6,0.2,6.7
	c0.2,0.4,0.6,0.6,1,0.4s0.6-0.6,0.4-1c0,0,0,0,0-0.1c-1.2-2.3-0.7-4.1-0.4-5c0.2,0.2,0.3,0.2,0.5,0.4c0.3,6.7,6.3,10.9,11.9,11.4
	h0.1c0.3,0,0.6-0.2,0.7-0.5c0.2-0.2,0.1-0.6-0.1-0.8c-0.1-0.2-1.2-2.2-1.4-2.7c1.1,1.4,4.2,3.8,4.4,3.9c0.2,0.1,0.3,0.2,0.5,0.1
	C31.6,25.9,41,20,41,6.1C41.1,3.5,38.9,1.3,36.2,1.3z"/>
<g class="st1">
	<g>
		<path class="st0" d="M52.7,19.3c2,0,3-0.7,3-2c0-0.4-0.1-0.8-0.3-1.1c-0.2-0.3-0.4-0.5-0.7-0.8c-0.3-0.2-0.6-0.4-1-0.6
			c-0.4-0.2-0.8-0.3-1.2-0.5c-0.5-0.2-1-0.4-1.4-0.6c-0.4-0.2-0.8-0.5-1.1-0.8c-0.3-0.3-0.6-0.6-0.8-1c-0.2-0.4-0.3-0.9-0.3-1.5
			c0-1.2,0.4-2.1,1.2-2.8c0.8-0.7,1.9-1,3.3-1c0.8,0,1.6,0.1,2.2,0.3s1.2,0.4,1.5,0.6l-0.6,1.5c-0.3-0.2-0.7-0.3-1.2-0.5
			c-0.5-0.2-1.2-0.2-1.9-0.2c-0.4,0-0.7,0-1,0.1c-0.3,0.1-0.6,0.2-0.8,0.3S51.1,9.4,51,9.6s-0.2,0.5-0.2,0.8c0,0.4,0.1,0.7,0.2,0.9
			c0.1,0.2,0.3,0.5,0.6,0.6c0.3,0.2,0.6,0.4,0.9,0.5c0.3,0.2,0.7,0.3,1.1,0.5c0.6,0.2,1.1,0.5,1.6,0.7c0.5,0.2,0.9,0.5,1.3,0.8
			c0.4,0.3,0.6,0.7,0.8,1.2c0.2,0.4,0.3,1,0.3,1.6c0,1.2-0.4,2.1-1.3,2.7c-0.9,0.6-2.1,1-3.6,1c-0.5,0-1,0-1.5-0.1
			c-0.4-0.1-0.8-0.2-1.2-0.3c-0.3-0.1-0.7-0.2-0.9-0.3c-0.3-0.1-0.5-0.2-0.6-0.3l0.6-1.6c0.3,0.2,0.8,0.4,1.4,0.6
			C51.1,19.2,51.8,19.3,52.7,19.3z"/>
		<path class="st0" d="M60.7,8.8c-0.3,0-0.6-0.1-0.8-0.3s-0.3-0.5-0.3-0.9c0-0.4,0.1-0.7,0.3-0.9c0.2-0.2,0.5-0.3,0.8-0.3
			c0.3,0,0.6,0.1,0.8,0.3c0.2,0.2,0.3,0.5,0.3,0.9c0,0.4-0.1,0.7-0.3,0.9C61.3,8.7,61,8.8,60.7,8.8z M61.6,20.7h-1.8V10.6h1.8V20.7z
			"/>
		<path class="st0" d="M64.7,10.9c0.4-0.1,1-0.2,1.6-0.3c0.7-0.1,1.5-0.2,2.4-0.2c0.6,0,1.2,0.1,1.6,0.3c0.4,0.2,0.8,0.4,1.1,0.8
			c0.1-0.1,0.2-0.2,0.4-0.3c0.2-0.1,0.4-0.2,0.7-0.3c0.3-0.1,0.6-0.2,1-0.3s0.7-0.1,1.1-0.1c0.8,0,1.4,0.1,1.9,0.3
			c0.5,0.2,0.9,0.5,1.2,1c0.3,0.4,0.5,0.9,0.6,1.5c0.1,0.6,0.1,1.2,0.1,1.9v5.7h-1.8v-5.3c0-0.6,0-1.1-0.1-1.5s-0.2-0.8-0.3-1.1
			c-0.2-0.3-0.4-0.5-0.7-0.6C75.3,12,74.9,12,74.5,12c-0.6,0-1.1,0.1-1.5,0.2c-0.4,0.2-0.7,0.3-0.8,0.4c0.1,0.3,0.2,0.7,0.2,1.1
			c0.1,0.4,0.1,0.8,0.1,1.3v5.7h-1.8v-5.3c0-0.6,0-1.1-0.1-1.5c-0.1-0.4-0.2-0.8-0.3-1.1c-0.2-0.3-0.4-0.5-0.7-0.6
			C69.3,12,68.9,12,68.5,12c-0.2,0-0.4,0-0.6,0s-0.4,0-0.6,0s-0.4,0-0.5,0.1c-0.2,0-0.3,0-0.3,0.1v8.5h-1.8V10.9z"/>
		<path class="st0" d="M90.3,15.7c0,0.8-0.1,1.5-0.3,2.1c-0.2,0.6-0.5,1.2-0.9,1.7s-0.9,0.8-1.4,1.1s-1.2,0.4-1.9,0.4
			c-0.6,0-1.1-0.1-1.5-0.2s-0.8-0.3-1-0.4v4h-1.8V10.9c0.4-0.1,1-0.2,1.6-0.3s1.4-0.2,2.2-0.2c0.8,0,1.5,0.1,2.1,0.4
			c0.6,0.2,1.2,0.6,1.6,1c0.4,0.5,0.8,1,1,1.7C90.2,14.1,90.3,14.8,90.3,15.7z M88.4,15.7c0-1.2-0.3-2.1-0.9-2.7s-1.4-1-2.3-1
			c-0.5,0-1,0-1.3,0.1c-0.3,0-0.5,0.1-0.7,0.1v6.4c0.2,0.2,0.5,0.4,1,0.5c0.4,0.2,0.9,0.3,1.4,0.3c0.5,0,1-0.1,1.3-0.3
			c0.4-0.2,0.7-0.4,0.9-0.8c0.2-0.3,0.4-0.7,0.5-1.2C88.4,16.7,88.4,16.2,88.4,15.7z"/>
		<path class="st0" d="M95.9,20.9c-1.1,0-1.9-0.3-2.4-0.7C93,19.7,92.8,19,92.8,18V5.9l1.8-0.3v12.1c0,0.3,0,0.5,0.1,0.7
			s0.1,0.3,0.3,0.5s0.3,0.2,0.5,0.3c0.2,0.1,0.4,0.1,0.7,0.1L95.9,20.9z"/>
		<path class="st0" d="M97.6,15.7c0-0.9,0.1-1.7,0.4-2.3c0.3-0.7,0.6-1.2,1-1.7c0.4-0.4,0.9-0.8,1.5-1c0.6-0.2,1.1-0.3,1.7-0.3
			c1.4,0,2.4,0.4,3.1,1.3s1.1,2.1,1.1,3.9c0,0.1,0,0.2,0,0.3s0,0.2,0,0.3h-6.9c0.1,1,0.4,1.8,0.9,2.4c0.5,0.5,1.4,0.8,2.5,0.8
			c0.6,0,1.2-0.1,1.6-0.2c0.4-0.1,0.8-0.2,1-0.3l0.3,1.5c-0.2,0.1-0.6,0.2-1.2,0.4c-0.5,0.1-1.2,0.2-1.9,0.2c-0.9,0-1.6-0.1-2.3-0.4
			s-1.2-0.6-1.6-1.1s-0.7-1-0.9-1.7S97.6,16.4,97.6,15.7z M104.5,14.7c0-0.8-0.2-1.5-0.6-2c-0.4-0.5-1-0.8-1.7-0.8
			c-0.4,0-0.8,0.1-1.1,0.2s-0.6,0.4-0.8,0.6s-0.4,0.6-0.5,0.9c-0.1,0.3-0.2,0.7-0.2,1H104.5z"/>
	</g>
</g>
</svg>
